<svg xmlns="http://www.w3.org/2000/svg" width="212.248" height="37.5" viewBox="0 0 212.248 37.5">
  <g id="logo" transform="translate(-53.752 -16.25)">
    <text id="Popcorn" transform="translate(190 46)" fill="#fff" font-size="30" font-family="Arial-BoldMT, Arial" font-weight="700"><tspan x="-75.842" y="0">POPCORN</tspan></text>
    <path id="film-solid" d="M47.656,64h-.781v1.953A1.175,1.175,0,0,1,45.7,67.125H41.8a1.175,1.175,0,0,1-1.172-1.172V64H9.375v1.953A1.175,1.175,0,0,1,8.2,67.125H4.3a1.175,1.175,0,0,1-1.172-1.172V64H2.344A2.338,2.338,0,0,0,0,66.344V99.156A2.338,2.338,0,0,0,2.344,101.5h.781V99.547A1.175,1.175,0,0,1,4.3,98.375H8.2a1.175,1.175,0,0,1,1.172,1.172V101.5h31.25V99.547A1.175,1.175,0,0,1,41.8,98.375H45.7a1.175,1.175,0,0,1,1.172,1.172V101.5h.781A2.338,2.338,0,0,0,50,99.156V66.344A2.338,2.338,0,0,0,47.656,64ZM9.375,94.078A1.175,1.175,0,0,1,8.2,95.25H4.3a1.175,1.175,0,0,1-1.172-1.172V90.172A1.175,1.175,0,0,1,4.3,89H8.2a1.175,1.175,0,0,1,1.172,1.172Zm0-9.375A1.175,1.175,0,0,1,8.2,85.875H4.3A1.175,1.175,0,0,1,3.125,84.7V80.8A1.175,1.175,0,0,1,4.3,79.625H8.2A1.175,1.175,0,0,1,9.375,80.8Zm0-9.375A1.175,1.175,0,0,1,8.2,76.5H4.3a1.175,1.175,0,0,1-1.172-1.172V71.422A1.175,1.175,0,0,1,4.3,70.25H8.2a1.175,1.175,0,0,1,1.172,1.172ZM35.937,95.641a1.175,1.175,0,0,1-1.172,1.172H15.234a1.175,1.175,0,0,1-1.172-1.172V86.266a1.175,1.175,0,0,1,1.172-1.172H34.766a1.175,1.175,0,0,1,1.172,1.172Zm0-16.406a1.175,1.175,0,0,1-1.172,1.172H15.234a1.175,1.175,0,0,1-1.172-1.172V69.859a1.175,1.175,0,0,1,1.172-1.172H34.766a1.175,1.175,0,0,1,1.172,1.172ZM46.875,94.078A1.175,1.175,0,0,1,45.7,95.25H41.8a1.175,1.175,0,0,1-1.172-1.172V90.172A1.175,1.175,0,0,1,41.8,89H45.7a1.175,1.175,0,0,1,1.172,1.172Zm0-9.375A1.175,1.175,0,0,1,45.7,85.875H41.8A1.175,1.175,0,0,1,40.625,84.7V80.8A1.175,1.175,0,0,1,41.8,79.625H45.7A1.175,1.175,0,0,1,46.875,80.8Zm0-9.375A1.175,1.175,0,0,1,45.7,76.5H41.8a1.175,1.175,0,0,1-1.172-1.172V71.422A1.175,1.175,0,0,1,41.8,70.25H45.7a1.175,1.175,0,0,1,1.172,1.172Z" transform="translate(53.752 -47.75)" fill="#fff"/>
  </g>
</svg>
